HIERARCHY
ROOT pelvis
{
  OFFSET 0 100 0
  CHANNELS 6 Xposition Yposition Zposition Zrotation Xrotation Yrotation
  JOINT pelvis_right_femur
  {
    OFFSET -10.78128 -3.44521 -0.5502486
    CHANNELS 3 Zrotation Xrotation Yrotation
    JOINT right_femur_tibia
    {
      OFFSET -0.8047443 -44.0398 -0.1307829
      CHANNELS 3 Zrotation Xrotation Yrotation
      JOINT right_tibia_foot
      {
        OFFSET 3.006224 -47.83518 -5
        CHANNELS 3 Zrotation Xrotation Yrotation
        End Site
        {
          OFFSET 0 -5 15
        }
      }
    }
  }
  JOINT pelvis_left_femur
  {
    OFFSET 10.78128 -3.44521 -0.5502486
    CHANNELS 3 Zrotation Xrotation Yrotation
    JOINT left_femur_tibia
    {
      OFFSET 0.8047443 -44.0398 -0.1307829
      CHANNELS 3 Zrotation Xrotation Yrotation
      JOINT left_tibia_foot
      {
        OFFSET -4.370144 -48.10324 -4.275266
        CHANNELS 3 Zrotation Xrotation Yrotation
        End Site
        {
          OFFSET 0 -5 15
        }
      }
    }
  }
  JOINT pelvis_spine1
  {
    OFFSET 0 6.468898 -3.129235
    CHANNELS 3 Zrotation Xrotation Yrotation
    JOINT spine1
    {
      OFFSET 0 23.15396 4.99043
      CHANNELS 3 Zrotation Xrotation Yrotation
      JOINT spine2
      {
        OFFSET 0 20.79997 -5.064912
        CHANNELS 3 Zrotation Xrotation Yrotation
        JOINT neck
        {
          OFFSET 0 14.38658 9.616178
          CHANNELS 3 Zrotation Xrotation Yrotation
          End Site
          {
            OFFSET 0 20 0
          }
        }
      }
      JOINT right_manubrium
      {
        OFFSET -5.722621 16.35077 3.967754
        CHANNELS 3 Zrotation Xrotation Yrotation
        JOINT right_clavicle
        {
          OFFSET -13.16364 1.694482 -4.693211
          CHANNELS 3 Zrotation Xrotation Yrotation
          JOINT right_humerus
          {
            OFFSET -28.5034 -0.3100689 -2.792744
            CHANNELS 3 Zrotation Xrotation Yrotation
            JOINT right_radius
            {
              OFFSET -25.15693 0.02248979 -1.271978
              CHANNELS 3 Zrotation Xrotation Yrotation
              End Site
              {
                OFFSET -15 0 0
              }
            }
          }
        }
      }
      JOINT left_manubrium
      {
        OFFSET 5.722621 16.35077 3.967754
        CHANNELS 3 Zrotation Xrotation Yrotation
        JOINT left_clavicle
        {
          OFFSET 13.16364 1.694482 -4.693211
          CHANNELS 3 Zrotation Xrotation Yrotation
          JOINT left_humerus
          {
            OFFSET 29.39168 -1.063119 -2.237045
            CHANNELS 3 Zrotation Xrotation Yrotation
            JOINT left_radius
            {
              OFFSET 24.59957 -0.9528479 0.9047498
              CHANNELS 3 Zrotation Xrotation Yrotation
              End Site
              {
                OFFSET 15 -0 -0
              }
            }
          }
        }
      }
    }
  }
}
MOTION
Frames: 13
Frame Time: 0.0416666666667
0 103.5113 0 1.308154 -1.428658 0.01202999 2.969333 -13.75458 9.379076 -0 38.42535 -0 -5.093409 -17.42877 -4.10034 -7.29268 9.480096 -22.89633 -0 5.113904 -0 9.472691 -17.01725 27.65242 -4.481266 -4.07233 4.472952 3.036704 9.217923 -7.891334 1.131578 22.71321 6.518627 2.357552 -24.65241 9.35875 6.025808 -19.9916 11.70673 85.32102 34.41981 -18.51684 -0 0 16.15572 -7.834865 7.828885 5.124288 5.315037 -18.81785 -0.9241563 -94.66835 26.65389 22.42603 0 0 -12.87694 6.555831 17.39683 5.598718
0.2876159 104.1389 1.42758 1.199167 -1.111503 0.008253888 3.257834 -14.84275 9.356221 -0 37.8741 -0 -5.057201 -16.96909 -3.954985 -7.27589 9.73742 -22.75304 -0 5.17586 -0 9.729934 -16.95505 27.49654 -4.371195 -3.985522 4.470022 3.057317 9.28293 -7.905803 1.152112 22.52937 6.552483 2.397349 -24.78482 9.40935 6.018295 -19.96876 11.70531 85.42956 34.61488 -18.63869 -0 0 16.0541 -7.650581 7.846992 5.147027 5.38194 -18.89915 -0.972629 -94.31435 26.32823 22.16388 0 0 -13.58269 7.105805 16.95944 5.127506
0.5529818 104.7044 4.560736 -0.7565376 2.518582 0.3293162 6.186765 -26.48047 7.821887 -0 24.60417 -0 -6.028796 -9.485921 -2.634295 -5.857324 13.41361 -19.24343 -0 8.963225 -0 4.655716 -21.0944 21.38507 -3.02383 -2.929342 3.77971 3.833066 9.165955 -8.872908 1.25392 20.39888 7.281499 3.092076 -26.8317 9.918647 5.458089 -18.55865 11.41872 86.84645 33.92723 -21.66417 -0 0 13.57957 -8.374455 9.476356 5.189423 6.808202 -21.25676 -0.3166832 -92.40672 25.54779 19.82442 0 0 -18.78812 7.912778 15.51574 4.429684
0.8035172 105.0311 7.971274 -1.060875 2.822594 0.7023995 6.505639 -27.85381 7.48169 -0 22.32515 -0 -6.28804 -8.336812 -2.561263 -5.597631 14.2035 -18.55905 -0 9.931377 -0 3.358819 -21.70293 20.19098 -2.806511 -2.727101 3.563602 3.952531 9.106261 -9.021226 1.274823 20.20986 7.351696 3.135665 -27.03662 9.965347 5.237574 -18.25948 11.30926 87.22584 33.52435 -22.23377 -0 0 12.86334 -8.631798 9.692729 5.238771 6.893783 -21.60539 -0.344045 -92.10108 25.89083 19.34645 0 0 -19.60982 7.438928 15.36428 4.96645
1.062688 105.5024 11.78343 -1.055961 2.970591 1.117314 7.006358 -28.81801 7.618813 -0 21.9866 -0 -6.086448 -7.882831 -2.496681 -5.866397 15.0953 -18.33739 -0 12.28571 -0 4.40481 -19.78364 20.16743 -2.512621 -2.274419 3.402144 3.806868 9.283524 -8.654843 1.354799 20.28774 7.376379 3.099787 -26.73388 10.10965 5.228769 -17.95735 11.11961 87.95355 35.00497 -22.55869 -0 0 11.42258 -7.628358 9.465897 5.389117 6.112445 -21.03077 -1.498465 -90.89354 26.51346 18.59811 0 0 -22.45684 7.601004 13.28774 5.652293
1.35265 106.1234 15.74349 -0.9542613 2.966299 1.534045 7.211086 -28.67099 7.820378 -0 22.80424 -0 -5.817715 -8.063443 -2.402274 -6.139688 15.28116 -18.47396 -0 13.78726 -0 5.281851 -18.10225 20.32661 -2.352163 -2.030931 3.389448 3.628811 9.399422 -8.347684 1.34915 20.40987 7.41511 3.117493 -26.41865 10.14038 5.419854 -17.85405 11.04851 88.22239 36.36467 -22.55352 -0 0 10.8602 -6.842696 9.296548 5.430215 5.54192 -20.45892 -2.281484 -90.33498 26.99251 18.46923 0 0 -23.95474 7.671958 11.99963 6.142022
1.688707 106.8665 19.9109 -0.9821084 3.259932 1.964836 7.585245 -29.48513 7.775157 -0 22.70397 -0 -5.64865 -7.700502 -1.978255 -6.350222 15.1783 -18.26994 -0 15.33628 -0 6.375276 -16.51932 20.22372 -2.116662 -1.705843 3.441179 3.472371 9.598108 -8.104097 1.289616 20.32186 7.557878 3.295171 -26.24132 10.13719 5.671393 -17.74287 11.07791 88.39283 37.87989 -22.48211 -0 0 10.45032 -6.277771 9.238236 5.442683 5.307727 -20.23711 -2.941105 -89.47751 26.30838 17.96713 0 0 -25.43553 8.9599 10.60752 5.074947
2.078531 107.6718 24.2151 -0.9703432 3.561492 2.385244 7.84547 -30.24119 7.636039 -0 22.54188 -0 -5.510926 -7.308859 -1.471088 -6.569027 14.8333 -18.03427 -0 16.40345 -0 7.570765 -15.12893 20.14273 -1.96213 -1.44891 3.565842 3.33072 9.834117 -7.924368 1.180123 20.18808 7.711198 3.530998 -26.08168 10.04637 5.95947 -17.72334 11.18626 88.44683 39.29614 -22.36695 -0 0 10.33105 -5.878117 9.147711 5.41735 5.224881 -20.19395 -3.507127 -88.71283 25.23084 17.5338 0 0 -26.59054 10.48851 9.352283 3.551995
2.52651 108.5191 28.64578 -0.9128276 3.895599 2.783128 8.036042 -31.08106 7.328137 -0 22.11892 -0 -5.423173 -6.729663 -0.8120023 -6.821575 14.28886 -17.64873 -0 17.3985 -0 8.975582 -13.66823 19.98181 -1.848367 -1.195516 3.760308 3.178516 10.15151 -7.780859 1.00386 19.99833 7.89221 3.866779 -25.87929 9.831474 6.298163 -17.75643 11.37106 88.47371 40.82507 -22.26576 -0 0 10.35778 -5.582175 8.98968 5.341878 5.242905 -20.34226 -4.142364 -87.86767 23.67305 17.03945 0 0 -27.75789 12.39471 7.932527 1.459229
3.030099 109.3781 33.16843 -0.7846899 4.165383 3.142724 8.093307 -31.8033 6.867037 -0 21.59601 -0 -5.398947 -6.028356 -0.0878973 -7.092184 13.65569 -17.1638 -0 18.13499 -0 10.43954 -12.28654 19.77348 -1.800483 -0.992627 4.003827 3.021255 10.53194 -7.697016 0.7718646 19.78893 8.060982 4.26494 -25.61594 9.472624 6.634377 -17.86639 11.61273 88.49709 42.23596 -22.21766 -0 0 10.56247 -5.424896 8.735388 5.212999 5.339709 -20.67016 -4.821819 -87.05209 21.87038 16.56884 0 0 -28.84815 14.35396 6.475407 -0.863584
3.580512 110.2234 37.78834 -0.6200478 4.347356 3.452096 8.032226 -32.44024 6.182941 -0 20.67673 -0 -5.51755 -5.102153 0.6716798 -7.324891 12.97425 -16.47154 -0 18.93213 -0 11.77384 -11.07977 19.43764 -1.795775 -0.8200161 4.264162 2.874339 10.95665 -7.684491 0.501103 19.56942 8.212095 4.720891 -25.29812 8.980958 6.911219 -17.99321 11.88435 88.56569 43.40433 -22.26722 -0 0 10.8066 -5.494925 8.423959 5.02264 5.527398 -21.2231 -5.5191 -86.26837 19.83253 16.04415 0 0 -29.8102 16.3151 5.041064 -3.39859
4.165333 111.039 42.5198 -0.4540136 4.409236 3.702577 7.878151 -32.88073 5.336132 -0 19.38479 -0 -5.794591 -4.03994 1.375054 -7.470867 12.28813 -15.61304 -0 19.9717 -0 12.76706 -10.15032 18.99302 -1.814135 -0.6793114 4.50441 2.753541 11.37111 -7.734031 0.2297525 19.37517 8.332918 5.184995 -24.95767 8.425682 7.086264 -18.09231 12.14382 88.6832 44.20777 -22.4065 -0 0 10.99502 -5.805229 8.121082 4.784706 5.770475 -21.92995 -6.15807 -85.61729 17.79309 15.51652 0 0 -30.49694 18.05922 3.806291 -5.864516
4.77191 111.8285 47.39023 -0.32625 4.349765 3.886592 7.680544 -33.01382 4.387677 -0 17.75635 -0 -6.222066 -2.931585 1.977801 -7.491601 11.55939 -14.62274 -0 21.54209 -0 13.24503 -9.485744 18.41427 -1.81768 -0.5522152 4.703129 2.662939 11.72885 -7.821174 -0.0185331 19.23011 8.432901 5.626336 -24.62351 7.875741 7.153677 -18.11953 12.36343 88.82516 44.64828 -22.59279 -0 0 11.05936 -6.346807 7.909421 4.513272 6.030462 -22.70467 -6.687875 -85.1709 15.9237 15.04586 0 0 -30.77482 19.47059 2.904149 -8.081988
